<svg xmlns="http://www.w3.org/2000/svg" xmlns:xlink="http://www.w3.org/1999/xlink" viewBox="0 0 1080 1080"><defs><style>.cls-1{fill:#0a1a3b;}.cls-2{fill:#fafdff;}.cls-3{fill:#67abb1;}.cls-4{fill:#e9e6d7;}.cls-5{fill:#fcf9e7;}.cls-6{fill:#bab9b0;}.cls-7{fill:url(#linear-gradient);}.cls-8{fill:#779aa8;}.cls-9{fill:#feffff;}.cls-10{fill:#223445;}.cls-11{fill:#314f5e;}.cls-12{fill:#fff;}.cls-13{fill:#fdfeff;}.cls-14{fill:#507380;}</style><linearGradient id="linear-gradient" x1="541.42" y1="242.13" x2="656.06" y2="242.13" gradientUnits="userSpaceOnUse"><stop offset="0" stop-color="#1d364b"/><stop offset="1" stop-color="#0e2340"/></linearGradient></defs><g id="Body"><path class="cls-1" d="M296.29,967.41H759a53.3,53.3,0,0,0,29.19-8.7l64.74-42.33a11.8,11.8,0,0,0-.3-19.94l-65.86-40.3a53.35,53.35,0,0,0-27.85-7.85H707.59s184-149.41,66.47-350.58c6.35-24.36,30-70.59-12.35-153.89,20.47-8.82,74.11-49.06,28.94-45.17,8.71-6.37,55.34-58.29,40.31-105.53a5.44,5.44,0,0,0-8.78-2.36c-34.84,30.48-57,57.77-142,64.12,0-10.59-1.42-28.59-1.42-28.59l102.88-33.86c12.94-4.26,13.15-22.5.31-27.05l-214.4-76a67.36,67.36,0,0,0-45.72.25l-215.9,79.12a12,12,0,0,0-.77,22.18c26.4,11.77,67.51,28.58,98.66,34.33-.35,26.11.36,31.05.36,31.05s-88-2-128.79-59.15a6.1,6.1,0,0,0-8.65-1.41c-11.53,9-23.86,43.77,18.5,98-9.53,3.17-27.53,16.58,36.35,52.94C311,369.24,281,413.71,309,497.71c-29.41,38.11-91.53,184.23,64.47,349.41H295.93a14.16,14.16,0,0,0-14.17,14.22l.36,92A14.17,14.17,0,0,0,296.29,967.41Z"/><path class="cls-1" d="M834,213c-1,58-3,129-3,129l12-.12,5,102.43a4,4,0,0,1-4,4H812.35a4,4,0,0,1-4-4.05L813,342h12l-5-105,5-21S829,209.12,834,213Z"/></g><g id="Pen"><path class="cls-2" d="M347.35,873.36v66.88a2.88,2.88,0,0,0,2.88,2.88H745.42a2.87,2.87,0,0,0,2.87-2.88v-67a2.86,2.86,0,0,0-2.87-2.87H688.76a2.88,2.88,0,0,0-2.78,2.13c-3.37,12.76-22.11,77.27-46.61,38.12a2.86,2.86,0,0,0-4.83,0c-7.58,11.63-22.13,33.65-41.42,2.15a2.88,2.88,0,0,0-4.85-.11c-7.86,11.81-17.29,27.6-42.52-12.76a2.86,2.86,0,0,0-5,.15c-8.47,15.88-26.63,41.3-43.13,15a2.88,2.88,0,0,0-4.71-.28c-8.2,10.49-23.59,29.21-42.54-4a2.86,2.86,0,0,0-4.68-.44c-10.36,12.4-36.49,28.53-50.6-37.55a2.9,2.9,0,0,0-2.83-2.29l-42.08.12A2.88,2.88,0,0,0,347.35,873.36Z"/><rect class="cls-3" x="305" y="870.36" width="27.06" height="72.76" rx="3.44"/><path class="cls-2" d="M774.84,936.66l30.31-15.59a3.21,3.21,0,0,0,1.73-2.84V892.76a3.18,3.18,0,0,0-1.63-2.79l-30.31-17a3.2,3.2,0,0,0-4.76,2.79v58A3.19,3.19,0,0,0,774.84,936.66Z"/><path class="cls-4" d="M770.18,905.45v28.37a3.19,3.19,0,0,0,4.66,2.84l30.31-15.59a3.21,3.21,0,0,0,1.73-2.84V905.6C793.24,905.45,782.82,905.45,770.18,905.45Z"/><path class="cls-4" d="M673.64,905.74c-8.43,16-20.43,27-34.27,4.87a2.86,2.86,0,0,0-4.83,0c-7.58,11.63-22.13,33.65-41.42,2.15a2.88,2.88,0,0,0-4.85-.11c-7.45,11.19-16.31,26-38.68-6.88H537.52C528.19,921,512.27,938.3,497.66,915a2.88,2.88,0,0,0-4.71-.28c-8.2,10.49-23.59,29.21-42.54-4a2.86,2.86,0,0,0-4.68-.44c-8,9.61-25.53,21.45-39.57-4.46l-58.81-.62v35.12a2.88,2.88,0,0,0,2.88,2.88H745.42a2.87,2.87,0,0,0,2.87-2.88v-34.5Z"/><rect class="cls-1" x="674.41" y="890" width="78.82" height="11.75"/><rect class="cls-1" x="529.94" y="890" width="20.47" height="11.75"/><rect class="cls-1" x="343.29" y="890" width="62.82" height="11.75"/><rect class="cls-1" x="344.88" y="918.59" width="405" height="11.75"/></g><g id="Body_White" data-name="Body White"><path class="cls-5" d="M539.77,341.59a5.08,5.08,0,0,0,7.71-.19c10.6-13,44.46-48.52,104.11-59.22,66.1-11.87,122.28-23.35,145.87-41.32a3.12,3.12,0,0,1,4.91,3.25c-5.89,23.53-28,79.49-78.9,83.91a3.27,3.27,0,0,0-2.1,5.48c13.85,14.92,46.65,44.11,44.57,104-2.27,65.35-43.48,115.81-95.37,139.16A30.82,30.82,0,0,0,660,584.54C635.14,613.1,590.07,664.23,549,630a10.15,10.15,0,0,0-11.32-1.16c-18.31,9.88-59,23.92-102.82-32.58a45.57,45.57,0,0,0-4.32-4.79c-13.41-12.91-30.89-24.55-42-31.39a127.18,127.18,0,0,1-28.41-23.75c-29.46-33.25-78.67-110.57-4.57-200.25a4.07,4.07,0,0,0-1.8-6.46c-25.33-8.7-54.25-17.92-72.78-86.41a2.54,2.54,0,0,1,3.78-2.84c23.12,14.15,62,34.2,102.85,39C430.75,284.4,485.55,281.84,539.77,341.59Z"/><path class="cls-5" d="M314.85,528.78c-13.62,29.12-56.88,144,39.21,264.94a4.31,4.31,0,0,0,6.85-.11c18.1-24.54,67.9-114.31,33.21-193.52a28,28,0,0,0-8.88-11.15c-16.35-12.24-44.76-32.55-62.88-60.67A4.29,4.29,0,0,0,314.85,528.78Z"/><path class="cls-5" d="M728.47,796.23c13.54-14.92,106.65-147,37.17-268.73a2.1,2.1,0,0,0-3.59-.24c-15.73,23.14-32.47,40.74-67.37,62a5.69,5.69,0,0,1-.56.26c-12.67,4.92-41.08,122.2,31.24,206.62A2.07,2.07,0,0,0,728.47,796.23Z"/><path class="cls-5" d="M423.82,627.24C425.77,647,431.85,729,403.31,767a1.77,1.77,0,0,0-.18,1.85c14.67,30.2,28.46,55.05,41.56,57.06a1.67,1.67,0,0,0,1-.17c9.17-4.58,26.93-16.22,43.78-.63a1.77,1.77,0,0,0,2,.3c10.15-5.09,34.22-12.5,50.35,15.23a1.78,1.78,0,0,0,2.91.25C553.66,830,570.48,812,590,823.3a1.83,1.83,0,0,0,1.77,0c9.88-5.48,22.06-11.24,47.91,2.06a1.83,1.83,0,0,0,1.28.15c13.07-3.46,19-14.23,42-54.22a1.78,1.78,0,0,0,0-1.86c-6.16-9.64-31.65-57.47-23.63-144.56a1.78,1.78,0,0,0-2.84-1.58c-69.93,52.12-92,33.88-108.29,26.27-2.17-1-5.57-2-7.53-.59C527,658.42,485,673.33,426.72,625.69A1.78,1.78,0,0,0,423.82,627.24Z"/><path class="cls-5" d="M438.24,870.43c0,16,2.1,28.47-7,28.47s-19.15-12.48-19.15-28.47,10.36-28.35,19.43-28.35S438.24,854.45,438.24,870.43Z"/><path class="cls-5" d="M483.06,870.49c-1.43,17.63-2.05,31.88-12.35,31.24-8-.5-13.11-14-14.47-31.24-1.54-19.35,5.18-33.13,14.47-31.23C482.24,841.6,484.43,853.57,483.06,870.49Z"/><path class="cls-5" d="M528.24,872.79c0,17-6.34,31.09-14.12,30.7-9.27-.46-12.41-17.57-12.36-34,.07-18.84,2.45-29.7,12.36-27.45C521.72,843.81,528.24,855.83,528.24,872.79Z"/><path class="cls-5" d="M581.18,872.64c-1.6,16.57-.57,29.11-9.53,29.11s-16.24-13.49-16.24-30.13,7.29-29.55,16.24-30.13C582.8,840.77,582.83,855.46,581.18,872.64Z"/><path class="cls-5" d="M628.12,870.1c.46,18.44-6.78,31.54-14.65,33.4-9,2.11-13.62-13.17-14.65-33.4-1.18-23.17,2.29-30.68,12.89-31C619,838.85,627.49,844.94,628.12,870.1Z"/><path class="cls-5" d="M669.94,870.37c0,16.56-7.51,30-15.06,30-9.08-.06-7.59-13.76-9.64-30-2.26-17.85-2.25-30.74,9.64-30C662.42,840.88,669.94,853.82,669.94,870.37Z"/><path class="cls-6" d="M765.64,527.5a2.1,2.1,0,0,0-3.59-.24,201.9,201.9,0,0,1-17.07,22c40.12,93.22-6.41,188.46-32.82,229.51a190,190,0,0,0,13.2,17.38,2.07,2.07,0,0,0,3.11,0C742,781.31,835.12,649.24,765.64,527.5Z"/><path class="cls-6" d="M327.85,536.16c-1.91-2.56-3.75-5.19-5.49-7.89a4.23,4.23,0,0,0-3.14-1.94C322,529.75,324.89,533,327.85,536.16Z"/><path class="cls-6" d="M394.11,600.09a27.85,27.85,0,0,0-8.87-11.15l-3-2.25c33.59,78.88-15.74,167.81-33.75,192.22a4.29,4.29,0,0,1-4.33,1.65c3.13,4.38,6.42,8.76,9.91,13.16a4.31,4.31,0,0,0,6.85-.11C379,769.07,428.81,679.3,394.11,600.09Z"/><path class="cls-6" d="M420.06,582.26h0Z"/><path class="cls-6" d="M352.07,307.58c-22.68-7.79-48.24-16-66.63-66.79l-.7-.42a2.54,2.54,0,0,0-3.78,2.84c16.17,59.78,40.26,74.41,63,83q4.83-5.93,9.94-12.12A4.07,4.07,0,0,0,352.07,307.58Z"/><path class="cls-6" d="M797.46,240.86c-1.16.88-2.41,1.74-3.72,2.59-7.52,17.84-20.81,37.28-48.27,59.08-2.13,1.69-115.63,52.36-39.53,61.76,28.55,3.53,36.15,58.08,35.3,76.4-2.85,60.76-29.08,90.55-63.38,119.13-3.41,2.85-18.18,7-21.1,10.37-24.88,28.56-67.13,79.4-108.23,45.16-3.19-2.65-10.45-2.91-14.11-.94-15.46,8.34-55.1,19.94-93.42-10.62,41.42,47.66,79.2,34.47,96.65,25.05A10.15,10.15,0,0,1,549,630c41.1,34.23,86.17-16.9,111.06-45.46a30.82,30.82,0,0,1,10.54-7.91c51.89-23.35,93.1-73.81,95.37-139.16,2.08-59.86-30.72-89.05-44.57-104a3.27,3.27,0,0,1,2.1-5.48c50.85-4.42,73-60.38,78.9-83.91A3.12,3.12,0,0,0,797.46,240.86Z"/><path class="cls-6" d="M682.94,769.46c-6.16-9.64-31.65-57.47-23.63-144.56a1.78,1.78,0,0,0-2.84-1.58q-6.63,4.93-12.68,9c-5.7,81.75,18.34,126.8,24.3,136.12a1.8,1.8,0,0,1,0,1.86c-19,33.06-26.36,46.14-35.73,51.64,2.3,1,4.72,2.08,7.28,3.4a1.83,1.83,0,0,0,1.28.15c13.07-3.46,19-14.23,42-54.22A1.78,1.78,0,0,0,682.94,769.46Z"/></g><g id="Hat"><path class="cls-7" d="M654.46,226.36a8,8,0,0,0-4.2-5.83c-16.3-8.6-84.36-43.68-106.06-41.35-.67.07-1.4.17-2.16.28-2.75,41.91,4.56,83.82,3.13,125.73a8.43,8.43,0,0,0,4.89-1.53c32.61-23.25,73.85-36.43,99.74-44.38a8,8,0,0,0,5.6-6.11C656.94,245,655.43,232.63,654.46,226.36Z"/><path class="cls-8" d="M545.17,305.19c1.43-41.91-5.88-83.82-3.13-125.73.76-.11-105.57,35.36-110,39.07-3.13,2.63-4.84,22.28-5.57,33.5a8,8,0,0,0,7.11,8.44c46.67,5.23,88.37,32.39,107.45,43.64a8,8,0,0,0,5.05,1C545.79,305.15,545.48,305.19,545.17,305.19Z"/><path class="cls-9" d="M449.7,210.51c-9.73,4-16.47,7-17.64,8-3.13,2.63-4.84,22.28-5.57,33.5a8,8,0,0,0,7.11,8.44c2.44.27,4.87.62,7.29,1,0-.16.06-.32.11-.48C445.67,243.88,447.31,227.36,449.7,210.51Z"/><path class="cls-10" d="M744.69,175.63l-198.78-70.3a3,3,0,0,0-.49-.13c-.11.94-.23,1.87-.42,2.8-1.63,16.3.72,31.28,0,47.09,32.12,3.87,119.38,43.28,130.81,48.45a4.12,4.12,0,0,0,2.45.28c12.17-2.5,48-14.36,66.35-20.54A4,4,0,0,0,744.69,175.63Z"/><path class="cls-11" d="M545,155.09c.69-15.81-1.66-30.79,0-47.09.19-.93.31-1.86.42-2.8a4.07,4.07,0,0,0-2,.07c-15.18,4.66-161.8,49.78-207.06,70.61a4,4,0,0,0,.63,7.57c28.44,7.77,60.8,17.91,67.92,20.16a4,4,0,0,0,2.81-.15c12.48-5.41,106.44-45.78,136.21-48.43a3.73,3.73,0,0,1,.82,0l.33,0Z"/><polygon class="cls-12" points="545.03 155.09 545.03 155.09 545.03 155.09 545.03 155.09"/><path class="cls-12" d="M544.62,113.07c.09-1.68.21-3.36.38-5.07.19-.93.31-1.86.42-2.8a4.07,4.07,0,0,0-2,.07c-15.18,4.66-161.8,49.78-207.06,70.61a4,4,0,0,0,.63,7.57l6.93,1.92A1075,1075,0,0,1,511,127C522.45,124.55,532.56,116.08,544.62,113.07Z"/></g><g id="Eyes_Glasses" data-name="Eyes + Glasses"><path class="cls-6" d="M580.37,467c4.44,6.93,7.21,16.3,4.64,28.52-5.57,26.53-27.26,52.72-39.33,64.31a8.48,8.48,0,0,1-11.26.42c2,2.55,3.93,5,5.91,7.17a8.47,8.47,0,0,0,12.13.41c12.07-11.59,33.76-37.78,39.34-64.31C595.54,485.72,588,474,580.37,467Z"/><path class="cls-6" d="M673.29,353.76a80.72,80.72,0,0,1-57.88,150.3,80.71,80.71,0,1,0,57.88-150.3Z"/><path class="cls-6" d="M510.78,449.69a80.72,80.72,0,0,1-161,2.35,80.71,80.71,0,1,0,161-2.35Z"/><path class="cls-1" d="M428.63,337.74a94.46,94.46,0,1,0,94.46,94.45A94.45,94.45,0,0,0,428.63,337.74Zm0,169.56a75.11,75.11,0,1,1,75.1-75.11A75.1,75.1,0,0,1,428.63,507.3Z"/><path class="cls-1" d="M655.22,337.74a94.46,94.46,0,1,0,94.45,94.45A94.46,94.46,0,0,0,655.22,337.74Zm0,169.56a75.11,75.11,0,1,1,75.1-75.11A75.1,75.1,0,0,1,655.22,507.3Z"/><circle class="cls-1" cx="653.35" cy="429.06" r="37.94"/><circle class="cls-13" cx="640.29" cy="413.71" r="13.06"/><circle class="cls-1" cx="433.12" cy="429.06" r="37.94"/><circle class="cls-13" cx="420.06" cy="413.71" r="13.06"/><path class="cls-1" d="M328.59,418.65h10.65a0,0,0,0,1,0,0v16.59a0,0,0,0,1,0,0H328.59a3,3,0,0,1-3-3V421.65A3,3,0,0,1,328.59,418.65Z"/><path class="cls-1" d="M747,422.76h9.85a3.82,3.82,0,0,1,3.82,3.82v8.59a3.82,3.82,0,0,1-3.82,3.82H747a0,0,0,0,1,0,0V422.76A0,0,0,0,1,747,422.76Z"/><path class="cls-1" d="M497,497.41s18.77,42,38.47,63.91a8.47,8.47,0,0,0,12.13.4c12.07-11.59,33.76-37.77,39.34-64.31C593.71,465,563,452.64,563,452.64s-22.28-13.41-44.64,3.6S497,497.41,497,497.41"/><path class="cls-1" d="M568.38,438.41c-16.59-4.26-32.63-4.52-48,0a.79.79,0,0,1-.79-.79V418.38a.79.79,0,0,1,.79-.79c16-2.76,32-3.21,48,0a.79.79,0,0,1,.8.79v19.24A.79.79,0,0,1,568.38,438.41Z"/><path class="cls-12" d="M518.63,484.2c6.13-6.76,26.34-25.17,45.45,1a5.63,5.63,0,0,1,1.06,3.85c-.68,7.7-8.48,26.92-17.79,39.7a5.79,5.79,0,0,1-9,.42c-6.48-7.35-17.15-19.9-21.07-40A5.81,5.81,0,0,1,518.63,484.2Z"/><path class="cls-14" d="M564.1,485.23c-6.14-8.42-12.4-12.22-18.26-13.3-.52,4.69-.67,9.38-1.84,14.07-.13.39-.27.78-.42,1.16a26.27,26.27,0,0,0-1.37,13.21c1.45,10.25,2.62,20.49,1,30.73a5.71,5.71,0,0,0,4.12-2.34c9.3-12.76,17.08-31.95,17.79-39.66A5.63,5.63,0,0,0,564.1,485.23Z"/></g><g id="Body_Details" data-name="Body Details"><path class="cls-1" d="M499.29,702.06c2.65,4.41-9.7,24.7-23.2,24.7s-25.85-14.29-24.44-22.58c9-20.18,9.26,3.17,22.76,3.17S486.87,681.34,499.29,702.06Z"/><path class="cls-1" d="M512.53,596.71c3.72,3.55-11.54,22-25,22s-25.85-14.29-24.44-22.58c2.19-13.59,9.27,3.17,22.77,3.17S503.54,588.14,512.53,596.71Z"/><path class="cls-1" d="M569,702.06c2.65,4.41-9.71,24.7-23.21,24.7s-25.85-14.29-24.44-22.58c9-20.18,9.27,3.17,22.77,3.17S556.57,681.34,569,702.06Z"/><path class="cls-1" d="M616.44,591.67c5.14.26-4.61,22.18-17.67,25.59s-30.31-5.57-31-14c7.59-10.76,11.45-1,24.51-4.4S606,591.13,616.44,591.67Z"/><path class="cls-1" d="M634.47,702.06c2.65,4.41-9.71,24.7-23.21,24.7s-25.85-14.29-24.44-22.58c9-20.18,9.27,3.17,22.77,3.17S622,681.34,634.47,702.06Z"/><path class="cls-1" d="M634.47,764.88c2.65,4.41-9.71,24.71-23.21,24.71s-25.85-14.3-24.44-22.59c9-20.18,9.27,3.18,22.77,3.18S622,744.17,634.47,764.88Z"/><path class="cls-1" d="M568.29,766.12c2.65,4.41-9.7,24.7-23.2,24.7s-25.85-14.29-24.44-22.58c9-20.18,9.26,3.17,22.76,3.17S555.87,745.4,568.29,766.12Z"/><path class="cls-1" d="M500.18,764.88c2.64,4.41-9.71,24.71-23.21,24.71s-25.85-14.3-24.44-22.59c9-20.18,9.27,3.18,22.76,3.18S487.75,744.17,500.18,764.88Z"/><rect class="cls-1" x="342.41" y="612.41" width="18.35" height="99.53" rx="8.29"/><rect class="cls-1" x="724.06" y="618.01" width="18.35" height="99.53" rx="8.29"/></g></svg>